<svg width="126" height="140" viewBox="0 0 126 140" fill="none" xmlns="http://www.w3.org/2000/svg">
<path d="M95.4835 87.9C83.4335 110.33 58.9035 120.48 40.6935 110.57C22.4835 100.66 17.4933 74.43 29.5433 52" stroke="#1E1E1E" stroke-width="5" stroke-linejoin="round"/>
<path d="M29.543 51.9997C41.593 29.5697 66.123 19.4196 84.333 29.3296C102.543 39.2396 107.533 65.4696 95.4832 87.8996" stroke="#1E1E1E" stroke-width="5" stroke-linejoin="round"/>
<path d="M112.752 96.7488C109.632 102.549 103.292 105.169 98.5821 102.609C93.8721 100.049 92.5822 93.2688 95.7022 87.4688" stroke="#1E1E1E" stroke-width="5" stroke-linejoin="round"/>
<path d="M73.4429 133.227C58.6829 139.037 42.8928 138.957 29.3828 131.607C1.7428 116.557 -5.82713 76.757 12.4629 42.707" stroke="#1E1E1E" stroke-width="5" stroke-linejoin="round"/>
<path d="M12.4629 42.699C30.7529 8.64897 67.9928 -6.761 95.6328 8.289C123.273 23.339 130.843 63.139 112.553 97.189" stroke="#1E1E1E" stroke-width="5" stroke-linejoin="round"/>
</svg>
